<svg width="39" height="33" viewBox="0 0 39 33" fill="none" xmlns="http://www.w3.org/2000/svg">
<path fill-rule="evenodd" clip-rule="evenodd" d="M22.1994 1.3003C26.433 -0.546427 30.6763 0.561446 33.704 2.72572C36.6355 4.82129 38.8898 8.25992 38.6446 11.6536C38.5651 12.7553 37.6074 13.5839 36.5057 13.5043C35.404 13.4247 34.5755 12.4671 34.655 11.3654C34.7647 9.84747 33.6382 7.59559 31.3778 5.9798C29.2136 4.43272 26.454 3.80839 23.7987 4.96668C22.6792 5.45498 22.1754 6.17544 21.9579 7.11134C21.7114 8.17206 21.8251 9.60401 22.2951 11.3338C23.0528 14.1232 24.5708 17.1219 25.8885 19.5003C26.2953 20.1701 26.6123 20.7423 26.8278 21.166C27.3227 22.1392 26.9452 23.3268 25.9856 23.8377C25.0487 24.3377 23.8807 24.0166 23.3319 23.1048C23.3245 23.0925 23.3173 23.0802 23.3101 23.0678C23.0411 22.5988 22.738 22.0677 22.4158 21.4875C21.1383 19.4002 18.8716 16.2386 16.1838 14.0611C14.4556 12.661 12.7543 11.8324 11.1841 11.7433C9.73427 11.6611 8.06546 12.1901 6.2416 14.2438C4.73428 15.941 4.07576 19.4102 4.75021 22.7985C5.4364 26.2457 7.1868 28.3087 9.19358 28.5442C10.2906 28.6729 11.0756 29.6666 10.9469 30.7637C10.8182 31.8607 9.82447 32.6457 8.72743 32.517C4.06178 31.9695 1.6217 27.5709 0.827173 23.5794C0.0209104 19.5289 0.591444 14.5821 3.25079 11.5876C5.73677 8.7884 8.53181 7.58643 11.4106 7.74976C13.8629 7.88888 16.1046 9.00569 18.0058 10.4135C17.7809 9.00005 17.747 7.55973 18.0617 6.20578C18.5538 4.08877 19.8743 2.31451 22.1994 1.3003Z" fill="#EC7463"/>
</svg>
