<svg width="41" height="33" viewBox="0 0 41 33" fill="none" xmlns="http://www.w3.org/2000/svg">
<path fill-rule="evenodd" clip-rule="evenodd" d="M12.2666 7.78721C8.65006 10.2015 5.56785 13.4549 3.7403 16.683C3.19611 17.6442 1.97574 17.9823 1.01453 17.4381C0.0533115 16.8939 -0.284759 15.6735 0.259425 14.7123C2.43187 10.875 5.97466 7.17814 10.0457 4.46042C14.1045 1.75078 18.882 -0.112139 23.5501 0.0052487C28.3382 0.125652 32.8289 2.33495 36.0318 7.37685C39.1651 12.3093 40.9999 19.8353 40.9999 30.567C40.9999 31.6716 40.1044 32.567 38.9999 32.567C37.8953 32.567 36.9999 31.6716 36.9999 30.567C36.9999 20.1938 35.2096 13.5424 32.6554 9.52168C30.1708 5.61048 26.9115 4.09104 23.4496 4.00398C19.8677 3.91391 15.8952 5.36482 12.2666 7.78721Z" fill="#07CECE"/>
</svg>
