<svg width="31" height="41" viewBox="0 0 31 41" fill="none" xmlns="http://www.w3.org/2000/svg">
<path fill-rule="evenodd" clip-rule="evenodd" d="M10.6822 5.79462C13.097 1.85726 17.2107 0.337216 20.9321 0.37921C24.5354 0.419871 28.352 1.94944 30.0933 4.87271C30.6585 5.82169 30.3475 7.04922 29.3985 7.61447C28.4495 8.17973 27.222 7.86866 26.6567 6.91968C25.8779 5.61217 23.6653 4.41031 20.887 4.37896C18.2268 4.34894 15.6066 5.4163 14.0921 7.88585C13.4535 8.92695 13.4527 9.8061 13.81 10.6981C14.2149 11.709 15.1277 12.8181 16.5031 13.9677C18.7209 15.8213 21.6819 17.4116 24.1236 18.6078C24.8406 18.9243 25.428 19.212 25.8472 19.4362C26.81 19.951 27.1801 21.1409 26.6856 22.109C26.2035 23.0553 25.062 23.4604 24.09 23.0268C24.077 23.021 24.064 23.015 24.051 23.0089C23.5621 22.7783 23.0095 22.5163 22.4133 22.2249C20.171 21.2444 16.5029 19.949 13.0525 19.7017C10.8341 19.5427 8.96471 19.8369 7.6261 20.6625C6.39015 21.4248 5.32443 22.8137 5.00417 25.5416C4.7395 27.7961 6.18496 31.0178 8.67723 33.4103C11.2129 35.8444 13.8289 36.5344 15.6093 35.5789C16.5826 35.0566 17.795 35.4222 18.3173 36.3955C18.8396 37.3688 18.474 38.5812 17.5008 39.1035C13.3615 41.3248 8.84311 39.1143 5.90714 36.2959C2.9278 33.4358 0.564488 29.0527 1.03146 25.0752C1.46798 21.357 3.07209 18.7717 5.52629 17.258C7.61683 15.9686 10.0943 15.6014 12.4591 15.6678C11.4656 14.6375 10.6136 13.4757 10.0967 12.1853C9.28864 10.1677 9.35608 7.95697 10.6822 5.79462Z" fill="#EC7463"/>
</svg>
