<svg width="41" height="35" viewBox="0 0 41 35" fill="none" xmlns="http://www.w3.org/2000/svg">
<path fill-rule="evenodd" clip-rule="evenodd" d="M4.78906 19.9634C4.62141 24.3085 5.44668 28.7134 6.98782 32.0877C7.44672 33.0924 7.00424 34.2789 5.9995 34.7378C4.99477 35.1967 3.80826 34.7542 3.34936 33.7495C1.51738 29.7385 0.603315 24.7004 0.792037 19.8092C0.980197 14.9326 2.27563 9.97111 5.11032 6.26032C8.01783 2.45422 12.4421 0.114818 18.4041 0.480512C24.2367 0.838268 31.4071 3.7696 40.0963 10.0678C40.9906 10.7161 41.1901 11.9666 40.5418 12.8609C39.8936 13.7553 38.6431 13.9548 37.7487 13.3065C29.3498 7.21871 22.9137 4.76464 18.1593 4.47301C13.5343 4.18933 10.3912 5.93657 8.28898 8.68852C6.11393 11.5358 4.95728 15.6038 4.78906 19.9634Z" fill="#E5EA0F"/>
</svg>
