<svg width="32" height="20" viewBox="0 0 32 20" fill="none" xmlns="http://www.w3.org/2000/svg">
<path fill-rule="evenodd" clip-rule="evenodd" d="M24.6866 10.1021C26.3916 7.68366 27.5435 4.87212 27.9082 2.40982C28.0701 1.31717 29.087 0.562613 30.1797 0.724462C31.2723 0.886311 32.0269 1.90328 31.865 2.99593C31.3977 6.15073 29.9757 9.5418 27.9559 12.4069C25.9444 15.2601 23.2052 17.7794 19.9757 18.9325C16.6332 20.126 12.9368 19.7843 9.41605 17.1806C5.99956 14.6541 2.85472 10.0846 0.134503 3.03141C-0.262965 2.00083 0.250275 0.843167 1.28085 0.4457C2.31143 0.0482324 3.46909 0.56147 3.86656 1.59205C6.45776 8.31069 9.24638 12.0802 11.7944 13.9645C14.2382 15.7717 16.5374 15.9128 18.6306 15.1654C20.8367 14.3777 22.9732 12.5325 24.6866 10.1021Z" fill="#07CECE"/>
</svg>
