<svg width="48" height="48" viewBox="0 0 48 48" fill="none" xmlns="http://www.w3.org/2000/svg">
<path fill-rule="evenodd" clip-rule="evenodd" d="M24 44C35.0456 44 44 35.0456 44 24C44 12.9543 35.0456 4 24 4C12.9543 4 4 12.9543 4 24C4 35.0456 12.9543 44 24 44ZM25.5 18C25.5 17.1716 24.8284 16.5 24 16.5C23.1716 16.5 22.5 17.1716 22.5 18V22.5H18C17.1716 22.5 16.5 23.1716 16.5 24C16.5 24.8284 17.1716 25.5 18 25.5H22.5V30C22.5 30.8284 23.1716 31.5 24 31.5C24.8284 31.5 25.5 30.8284 25.5 30V25.5H30C30.8284 25.5 31.5 24.8284 31.5 24C31.5 23.1716 30.8284 22.5 30 22.5H25.5V18Z" fill="black"/>
</svg>
