<svg width="56" height="56" viewBox="0 0 56 56" fill="none" xmlns="http://www.w3.org/2000/svg">
<path fill-rule="evenodd" clip-rule="evenodd" d="M34.6879 7.78148C34.3729 7.46649 34.596 6.92792 35.0415 6.92792L47.8252 6.92792C48.1013 6.92792 48.3252 7.15178 48.3252 7.42792L48.3252 20.2116C48.3252 20.6571 47.7866 20.8802 47.4716 20.5652L44.435 17.5286C44.2397 17.3333 43.9231 17.3333 43.7279 17.5286L17.5257 43.7307C17.3305 43.926 17.3305 44.2426 17.5257 44.4378L20.5629 47.475C20.8779 47.79 20.6548 48.3286 20.2093 48.3286L7.42563 48.3286C7.14949 48.3286 6.92563 48.1047 6.92563 47.8286L6.92563 35.0448C6.92563 34.5994 7.4642 34.3763 7.77918 34.6913L10.6707 37.5828C10.8659 37.778 11.1825 37.778 11.3778 37.5828L37.5799 11.3806C37.7752 11.1854 37.7752 10.8688 37.5799 10.6735L34.6879 7.78148Z" fill="white"/>
<path fill-rule="evenodd" clip-rule="evenodd" d="M8.11851 21.189C7.80353 21.504 7.26496 21.2809 7.26496 20.8355L7.26496 8.05177C7.26496 7.77563 7.48882 7.55177 7.76496 7.55177L20.5487 7.55177C20.9941 7.55177 21.2172 8.09034 20.9022 8.40532L17.8652 11.4424C17.6699 11.6376 17.6699 11.9542 17.8652 12.1495L44.0679 38.3522C44.2631 38.5475 44.2631 38.864 44.0679 39.0593L38.627 44.5001C38.4318 44.6954 38.1152 44.6954 37.9199 44.5001L11.7172 18.2974C11.522 18.1022 11.2054 18.1022 11.0101 18.2974L8.11851 21.189ZM48.1662 48.9523C48.4424 48.9523 48.6662 48.7284 48.6662 48.4523L48.6662 35.6686C48.6662 35.2231 48.1276 35.0001 47.8127 35.315L35.0289 48.0988C34.714 48.4137 34.937 48.9523 35.3825 48.9523L48.1662 48.9523Z" fill="white"/>
</svg>
